<svg width="22" height="22" viewBox="0 0 22 22" fill="none" xmlns="http://www.w3.org/2000/svg">
<path d="M19.5785 5.80725C17.8855 6.37158 15.6282 4.11426 16.1926 2.42126M16.0556 2.55819L12.4082 6.20561C10.8225 7.79129 9.69761 9.7781 9.15373 11.9536L8.97749 12.6586C8.92257 12.8783 9.12154 13.0772 9.3412 13.0223L10.0462 12.8461C12.2217 12.3022 14.2085 11.1773 15.7942 9.59159L19.4416 5.94418C19.8906 5.49517 20.1429 4.88618 20.1429 4.25119C20.1429 2.92888 19.0709 1.85693 17.7486 1.85693C17.1136 1.85693 16.5046 2.10918 16.0556 2.55819Z" stroke="#9E9EA5" stroke-width="2"/>
<path d="M11.0003 1.85693C9.9607 1.85693 8.92113 1.97643 7.90231 2.21541C5.0808 2.87725 2.87774 5.08031 2.2159 7.90182C1.73793 9.93948 1.73793 12.0601 2.2159 14.0978C2.87774 16.9193 5.0808 19.1223 7.90231 19.7842C9.93997 20.2621 12.0606 20.2621 14.0983 19.7842C16.9198 19.1223 19.1228 16.9193 19.7847 14.0978C20.0236 13.0789 20.1431 12.0393 20.1431 10.9998" stroke="#9E9EA5" stroke-width="2" stroke-linecap="round"/>
</svg>
