<svg width="105" height="32" viewBox="0 0 105 32" fill="none" xmlns="http://www.w3.org/2000/svg">
<rect width="105" height="32" rx="6" fill="#F0CB23"/>
<path d="M13.3355 21.9537C13.6486 21.9537 13.9025 21.6999 13.9025 21.3868C13.9025 21.0737 13.6486 20.8198 13.3355 20.8198C13.0224 20.8198 12.7686 21.0737 12.7686 21.3868C12.7686 21.6999 13.0224 21.9537 13.3355 21.9537Z" fill="#383838" stroke="#383838" stroke-width="1.65" stroke-linecap="round" stroke-linejoin="round"/>
<path d="M19.5721 21.9537C19.8852 21.9537 20.139 21.6999 20.139 21.3868C20.139 21.0737 19.8852 20.8198 19.5721 20.8198C19.259 20.8198 19.0051 21.0737 19.0051 21.3868C19.0051 21.6999 19.259 21.9537 19.5721 21.9537Z" fill="#383838" stroke="#383838" stroke-width="1.65" stroke-linecap="round" stroke-linejoin="round"/>
<path d="M8.80005 10.0474H11.0679L12.5873 17.6389C12.6391 17.8999 12.7811 18.1343 12.9884 18.3012C13.1957 18.4681 13.4551 18.5567 13.7212 18.5516H19.232C19.498 18.5567 19.7574 18.4681 19.9647 18.3012C20.172 18.1343 20.314 17.8999 20.3659 17.6389L21.273 12.8821H11.6348" stroke="#383838" stroke-width="1.65" stroke-linecap="round" stroke-linejoin="round"/>
<rect x="16.8" y="8.80029" width="8" height="8" rx="4" fill="#F0CB23"/>
<path d="M22.4 12.8002L19.2 12.8002M20.8 11.2002L20.8 14.4002" stroke="#383838" stroke-width="1.65" stroke-linecap="round" stroke-linejoin="round"/>
<path d="M31.852 20.12C31.14 20.12 30.528 20.012 30.016 19.796C29.504 19.58 29.116 19.296 28.852 18.944C28.588 18.592 28.448 18.212 28.432 17.804C28.432 17.732 28.456 17.672 28.504 17.624C28.552 17.576 28.612 17.552 28.684 17.552H29.752C29.848 17.552 29.92 17.572 29.968 17.612C30.024 17.644 30.076 17.7 30.124 17.78C30.204 18.052 30.388 18.28 30.676 18.464C30.964 18.648 31.356 18.74 31.852 18.74C32.42 18.74 32.848 18.648 33.136 18.464C33.424 18.272 33.568 18.008 33.568 17.672C33.568 17.448 33.492 17.264 33.34 17.12C33.196 16.976 32.976 16.852 32.68 16.748C32.392 16.644 31.96 16.516 31.384 16.364C30.44 16.14 29.748 15.844 29.308 15.476C28.876 15.1 28.66 14.568 28.66 13.88C28.66 13.416 28.784 13.004 29.032 12.644C29.288 12.284 29.652 12 30.124 11.792C30.604 11.584 31.16 11.48 31.792 11.48C32.448 11.48 33.016 11.596 33.496 11.828C33.976 12.06 34.34 12.352 34.588 12.704C34.844 13.048 34.98 13.392 34.996 13.736C34.996 13.808 34.972 13.868 34.924 13.916C34.876 13.964 34.816 13.988 34.744 13.988H33.628C33.46 13.988 33.344 13.912 33.28 13.76C33.232 13.504 33.072 13.292 32.8 13.124C32.528 12.948 32.192 12.86 31.792 12.86C31.344 12.86 30.992 12.944 30.736 13.112C30.48 13.28 30.352 13.524 30.352 13.844C30.352 14.068 30.416 14.252 30.544 14.396C30.672 14.54 30.872 14.668 31.144 14.78C31.424 14.892 31.824 15.016 32.344 15.152C33.048 15.312 33.608 15.492 34.024 15.692C34.448 15.892 34.76 16.144 34.96 16.448C35.16 16.752 35.26 17.14 35.26 17.612C35.26 18.124 35.116 18.572 34.828 18.956C34.548 19.332 34.148 19.62 33.628 19.82C33.116 20.02 32.524 20.12 31.852 20.12ZM38.3032 20.12C37.8952 20.12 37.5192 20.04 37.1752 19.88C36.8392 19.712 36.5712 19.488 36.3712 19.208C36.1792 18.928 36.0832 18.62 36.0832 18.284C36.0832 17.74 36.3032 17.3 36.7432 16.964C37.1832 16.628 37.7872 16.4 38.5552 16.28L40.1992 16.04V15.788C40.1992 15.436 40.1112 15.172 39.9352 14.996C39.7592 14.82 39.4752 14.732 39.0832 14.732C38.8192 14.732 38.6032 14.784 38.4352 14.888C38.2752 14.984 38.1472 15.08 38.0512 15.176C37.9552 15.28 37.8912 15.348 37.8592 15.38C37.8272 15.476 37.7672 15.524 37.6792 15.524H36.7552C36.6832 15.524 36.6192 15.5 36.5632 15.452C36.5152 15.404 36.4912 15.34 36.4912 15.26C36.4992 15.06 36.5952 14.832 36.7792 14.576C36.9712 14.32 37.2632 14.1 37.6552 13.916C38.0472 13.732 38.5272 13.64 39.0952 13.64C40.0392 13.64 40.7272 13.852 41.1592 14.276C41.5912 14.7 41.8072 15.256 41.8072 15.944V19.712C41.8072 19.792 41.7792 19.86 41.7232 19.916C41.6752 19.972 41.6072 20 41.5192 20H40.5472C40.4672 20 40.3992 19.972 40.3432 19.916C40.2872 19.86 40.2592 19.792 40.2592 19.712V19.244C40.0832 19.5 39.8312 19.712 39.5032 19.88C39.1832 20.04 38.7832 20.12 38.3032 20.12ZM38.7112 18.98C39.1512 18.98 39.5112 18.836 39.7912 18.548C40.0712 18.26 40.2112 17.84 40.2112 17.288V17.036L39.0112 17.228C38.5472 17.3 38.1952 17.416 37.9552 17.576C37.7232 17.736 37.6072 17.932 37.6072 18.164C37.6072 18.42 37.7152 18.62 37.9312 18.764C38.1472 18.908 38.4072 18.98 38.7112 18.98ZM45.4141 20C45.2941 20 45.2021 19.976 45.1381 19.928C45.0741 19.872 45.0221 19.796 44.9821 19.7L42.7381 14.132L42.7141 14.024C42.7141 13.952 42.7381 13.892 42.7861 13.844C42.8421 13.788 42.9061 13.76 42.9781 13.76H43.9501C44.1021 13.76 44.2061 13.836 44.2621 13.988L45.8581 18.2L47.4541 13.988C47.4781 13.932 47.5141 13.88 47.5621 13.832C47.6181 13.784 47.6861 13.76 47.7661 13.76H48.7501C48.8141 13.76 48.8701 13.788 48.9181 13.844C48.9741 13.892 49.0021 13.952 49.0021 14.024C49.0021 14.072 48.9981 14.108 48.9901 14.132L46.7341 19.7C46.6941 19.796 46.6421 19.872 46.5781 19.928C46.5141 19.976 46.4221 20 46.3021 20H45.4141ZM51.6509 20.12C51.2429 20.12 50.8669 20.04 50.5229 19.88C50.1869 19.712 49.9189 19.488 49.7189 19.208C49.5269 18.928 49.4309 18.62 49.4309 18.284C49.4309 17.74 49.6509 17.3 50.0909 16.964C50.5309 16.628 51.1349 16.4 51.9029 16.28L53.5469 16.04V15.788C53.5469 15.436 53.4589 15.172 53.2829 14.996C53.1069 14.82 52.8229 14.732 52.4309 14.732C52.1669 14.732 51.9509 14.784 51.7829 14.888C51.6229 14.984 51.4949 15.08 51.3989 15.176C51.3029 15.28 51.2389 15.348 51.2069 15.38C51.1749 15.476 51.1149 15.524 51.0269 15.524H50.1029C50.0309 15.524 49.9669 15.5 49.9109 15.452C49.8629 15.404 49.8389 15.34 49.8389 15.26C49.8469 15.06 49.9429 14.832 50.1269 14.576C50.3189 14.32 50.6109 14.1 51.0029 13.916C51.3949 13.732 51.8749 13.64 52.4429 13.64C53.3869 13.64 54.0749 13.852 54.5069 14.276C54.9389 14.7 55.1549 15.256 55.1549 15.944V19.712C55.1549 19.792 55.1269 19.86 55.0709 19.916C55.0229 19.972 54.9549 20 54.8669 20H53.8949C53.8149 20 53.7469 19.972 53.6909 19.916C53.6349 19.86 53.6069 19.792 53.6069 19.712V19.244C53.4309 19.5 53.1789 19.712 52.8509 19.88C52.5309 20.04 52.1309 20.12 51.6509 20.12ZM52.0589 18.98C52.4989 18.98 52.8589 18.836 53.1389 18.548C53.4189 18.26 53.5589 17.84 53.5589 17.288V17.036L52.3589 17.228C51.8949 17.3 51.5429 17.416 51.3029 17.576C51.0709 17.736 50.9549 17.932 50.9549 18.164C50.9549 18.42 51.0629 18.62 51.2789 18.764C51.4949 18.908 51.7549 18.98 52.0589 18.98ZM59.4558 20C58.7278 20 58.1798 19.812 57.8118 19.436C57.4518 19.052 57.2718 18.492 57.2718 17.756V15.032H56.3238C56.2438 15.032 56.1758 15.004 56.1198 14.948C56.0638 14.884 56.0358 14.812 56.0358 14.732V14.048C56.0358 13.968 56.0638 13.9 56.1198 13.844C56.1758 13.788 56.2438 13.76 56.3238 13.76H57.2718V11.768C57.2718 11.68 57.2998 11.612 57.3558 11.564C57.4118 11.508 57.4798 11.48 57.5598 11.48H58.5318C58.6198 11.48 58.6878 11.508 58.7358 11.564C58.7918 11.612 58.8198 11.68 58.8198 11.768V13.76H60.3198C60.4078 13.76 60.4758 13.788 60.5238 13.844C60.5798 13.892 60.6078 13.96 60.6078 14.048V14.732C60.6078 14.82 60.5798 14.892 60.5238 14.948C60.4678 15.004 60.3998 15.032 60.3198 15.032H58.8198V17.636C58.8198 17.98 58.8798 18.24 58.9998 18.416C59.1198 18.592 59.3198 18.68 59.5998 18.68H60.4278C60.5078 18.68 60.5758 18.708 60.6318 18.764C60.6878 18.82 60.7158 18.888 60.7158 18.968V19.712C60.7158 19.792 60.6878 19.86 60.6318 19.916C60.5838 19.972 60.5158 20 60.4278 20H59.4558ZM64.4803 20.12C63.6003 20.12 62.8963 19.876 62.3683 19.388C61.8483 18.9 61.5723 18.224 61.5403 17.36L61.5283 16.88L61.5403 16.4C61.5723 15.536 61.8483 14.86 62.3683 14.372C62.8963 13.884 63.6003 13.64 64.4803 13.64C65.1043 13.64 65.6323 13.752 66.0643 13.976C66.5043 14.2 66.8283 14.476 67.0363 14.804C67.2523 15.124 67.3683 15.428 67.3843 15.716C67.3923 15.796 67.3643 15.864 67.3003 15.92C67.2443 15.976 67.1763 16.004 67.0963 16.004H66.0403C65.9603 16.004 65.8963 15.988 65.8483 15.956C65.8083 15.916 65.7683 15.852 65.7283 15.764C65.6083 15.452 65.4483 15.228 65.2483 15.092C65.0563 14.956 64.8083 14.888 64.5043 14.888C64.0963 14.888 63.7763 15.02 63.5443 15.284C63.3123 15.54 63.1883 15.932 63.1723 16.46L63.1603 16.904L63.1723 17.3C63.2043 18.348 63.6483 18.872 64.5043 18.872C64.8163 18.872 65.0683 18.804 65.2603 18.668C65.4523 18.532 65.6083 18.308 65.7283 17.996C65.7683 17.908 65.8083 17.848 65.8483 17.816C65.8963 17.776 65.9603 17.756 66.0403 17.756H67.0963C67.1763 17.756 67.2443 17.784 67.3003 17.84C67.3643 17.896 67.3923 17.964 67.3843 18.044C67.3683 18.324 67.2563 18.624 67.0483 18.944C66.8403 19.264 66.5203 19.54 66.0883 19.772C65.6563 20.004 65.1203 20.12 64.4803 20.12ZM68.9358 20C68.8558 20 68.7878 19.972 68.7318 19.916C68.6758 19.86 68.6478 19.792 68.6478 19.712V11.768C68.6478 11.68 68.6758 11.612 68.7318 11.564C68.7878 11.508 68.8558 11.48 68.9358 11.48H70.0038C70.0918 11.48 70.1598 11.508 70.2078 11.564C70.2638 11.612 70.2918 11.68 70.2918 11.768V14.504C70.7718 13.928 71.4198 13.64 72.2358 13.64C72.9718 13.64 73.5598 13.884 73.9998 14.372C74.4398 14.852 74.6598 15.508 74.6598 16.34V19.712C74.6598 19.792 74.6318 19.86 74.5758 19.916C74.5278 19.972 74.4598 20 74.3718 20H73.2918C73.2118 20 73.1438 19.972 73.0878 19.916C73.0318 19.86 73.0038 19.792 73.0038 19.712V16.412C73.0038 15.94 72.8878 15.576 72.6558 15.32C72.4318 15.056 72.1038 14.924 71.6718 14.924C71.2478 14.924 70.9118 15.056 70.6638 15.32C70.4158 15.584 70.2918 15.948 70.2918 16.412V19.712C70.2918 19.792 70.2638 19.86 70.2078 19.916C70.1598 19.972 70.0918 20 70.0038 20H68.9358ZM77.9946 20.12C77.5866 20.12 77.2106 20.04 76.8666 19.88C76.5306 19.712 76.2626 19.488 76.0626 19.208C75.8706 18.928 75.7746 18.62 75.7746 18.284C75.7746 17.74 75.9946 17.3 76.4346 16.964C76.8746 16.628 77.4786 16.4 78.2466 16.28L79.8906 16.04V15.788C79.8906 15.436 79.8026 15.172 79.6266 14.996C79.4506 14.82 79.1666 14.732 78.7746 14.732C78.5106 14.732 78.2946 14.784 78.1266 14.888C77.9666 14.984 77.8386 15.08 77.7426 15.176C77.6466 15.28 77.5826 15.348 77.5506 15.38C77.5186 15.476 77.4586 15.524 77.3706 15.524H76.4466C76.3746 15.524 76.3106 15.5 76.2546 15.452C76.2066 15.404 76.1826 15.34 76.1826 15.26C76.1906 15.06 76.2866 14.832 76.4706 14.576C76.6626 14.32 76.9546 14.1 77.3466 13.916C77.7386 13.732 78.2186 13.64 78.7866 13.64C79.7306 13.64 80.4186 13.852 80.8506 14.276C81.2826 14.7 81.4986 15.256 81.4986 15.944V19.712C81.4986 19.792 81.4706 19.86 81.4146 19.916C81.3666 19.972 81.2986 20 81.2106 20H80.2386C80.1586 20 80.0906 19.972 80.0346 19.916C79.9786 19.86 79.9506 19.792 79.9506 19.712V19.244C79.7746 19.5 79.5226 19.712 79.1946 19.88C78.8746 20.04 78.4746 20.12 77.9946 20.12ZM78.4026 18.98C78.8426 18.98 79.2026 18.836 79.4826 18.548C79.7626 18.26 79.9026 17.84 79.9026 17.288V17.036L78.7026 17.228C78.2386 17.3 77.8866 17.416 77.6466 17.576C77.4146 17.736 77.2986 17.932 77.2986 18.164C77.2986 18.42 77.4066 18.62 77.6226 18.764C77.8386 18.908 78.0986 18.98 78.4026 18.98ZM85.8581 22.64C85.1461 22.64 84.5701 22.52 84.1301 22.28C83.6901 22.048 83.3781 21.78 83.1941 21.476C83.0101 21.172 82.9181 20.912 82.9181 20.696C82.9181 20.624 82.9461 20.56 83.0021 20.504C83.0661 20.448 83.1341 20.42 83.2061 20.42H84.2501C84.3221 20.42 84.3821 20.436 84.4301 20.468C84.4861 20.508 84.5301 20.576 84.5621 20.672C84.6421 20.888 84.7701 21.068 84.9461 21.212C85.1301 21.364 85.4141 21.44 85.7981 21.44C86.2781 21.44 86.6301 21.332 86.8541 21.116C87.0861 20.9 87.2021 20.528 87.2021 20V19.184C86.7621 19.704 86.1461 19.964 85.3541 19.964C84.5221 19.964 83.8941 19.708 83.4701 19.196C83.0541 18.684 82.8301 17.996 82.7981 17.132L82.7861 16.808L82.7981 16.484C82.8301 15.636 83.0581 14.952 83.4821 14.432C83.9061 13.904 84.5301 13.64 85.3541 13.64C85.7781 13.64 86.1501 13.72 86.4701 13.88C86.7901 14.04 87.0581 14.26 87.2741 14.54V14.06C87.2741 13.972 87.3021 13.9 87.3581 13.844C87.4141 13.788 87.4821 13.76 87.5621 13.76H88.5341C88.6141 13.76 88.6821 13.792 88.7381 13.856C88.7941 13.912 88.8221 13.98 88.8221 14.06L88.8341 19.844C88.8341 20.732 88.5861 21.42 88.0901 21.908C87.5941 22.396 86.8501 22.64 85.8581 22.64ZM85.7981 18.692C86.2541 18.692 86.5941 18.548 86.8181 18.26C87.0501 17.972 87.1781 17.62 87.2021 17.204C87.2101 17.14 87.2141 17.008 87.2141 16.808C87.2141 16.616 87.2101 16.488 87.2021 16.424C87.1781 16 87.0501 15.644 86.8181 15.356C86.5941 15.068 86.2541 14.924 85.7981 14.924C84.9341 14.924 84.4781 15.456 84.4301 16.52L84.4181 16.808C84.4181 17.376 84.5181 17.832 84.7181 18.176C84.9261 18.52 85.2861 18.692 85.7981 18.692ZM92.2446 20.12C91.8366 20.12 91.4606 20.04 91.1166 19.88C90.7806 19.712 90.5126 19.488 90.3126 19.208C90.1206 18.928 90.0246 18.62 90.0246 18.284C90.0246 17.74 90.2446 17.3 90.6846 16.964C91.1246 16.628 91.7286 16.4 92.4966 16.28L94.1406 16.04V15.788C94.1406 15.436 94.0526 15.172 93.8766 14.996C93.7006 14.82 93.4166 14.732 93.0246 14.732C92.7606 14.732 92.5446 14.784 92.3766 14.888C92.2166 14.984 92.0886 15.08 91.9926 15.176C91.8966 15.28 91.8326 15.348 91.8006 15.38C91.7686 15.476 91.7086 15.524 91.6206 15.524H90.6966C90.6246 15.524 90.5606 15.5 90.5046 15.452C90.4566 15.404 90.4326 15.34 90.4326 15.26C90.4406 15.06 90.5366 14.832 90.7206 14.576C90.9126 14.32 91.2046 14.1 91.5966 13.916C91.9886 13.732 92.4686 13.64 93.0366 13.64C93.9806 13.64 94.6686 13.852 95.1006 14.276C95.5326 14.7 95.7486 15.256 95.7486 15.944V19.712C95.7486 19.792 95.7206 19.86 95.6646 19.916C95.6166 19.972 95.5486 20 95.4606 20H94.4886C94.4086 20 94.3406 19.972 94.2846 19.916C94.2286 19.86 94.2006 19.792 94.2006 19.712V19.244C94.0246 19.5 93.7726 19.712 93.4446 19.88C93.1246 20.04 92.7246 20.12 92.2446 20.12ZM92.6526 18.98C93.0926 18.98 93.4526 18.836 93.7326 18.548C94.0126 18.26 94.1526 17.84 94.1526 17.288V17.036L92.9526 17.228C92.4886 17.3 92.1366 17.416 91.8966 17.576C91.6646 17.736 91.5486 17.932 91.5486 18.164C91.5486 18.42 91.6566 18.62 91.8726 18.764C92.0886 18.908 92.3486 18.98 92.6526 18.98Z" fill="#383838"/>
</svg>
