<svg width="50" height="28" viewBox="0 0 50 28" fill="none" xmlns="http://www.w3.org/2000/svg">
<path d="M0 0H50V28H12C5.37258 28 0 22.6274 0 16V0Z" fill="#F0CB23"/>
<path d="M16.672 18.132C15.984 18.132 15.404 18.02 14.932 17.796C14.46 17.564 14.1 17.264 13.852 16.896C13.612 16.528 13.484 16.136 13.468 15.72C13.46 15.648 13.48 15.592 13.528 15.552C13.584 15.504 13.648 15.48 13.72 15.48H14.836C14.924 15.48 14.996 15.5 15.052 15.54C15.116 15.572 15.164 15.632 15.196 15.72C15.276 15.96 15.388 16.156 15.532 16.308C15.684 16.46 15.856 16.572 16.048 16.644C16.248 16.716 16.456 16.752 16.672 16.752C16.96 16.752 17.22 16.696 17.452 16.584C17.692 16.464 17.884 16.288 18.028 16.056C18.172 15.824 18.244 15.54 18.244 15.204C18.244 14.908 18.176 14.652 18.04 14.436C17.904 14.22 17.716 14.052 17.476 13.932C17.244 13.804 16.976 13.74 16.672 13.74C16.448 13.74 16.264 13.768 16.12 13.824C15.976 13.88 15.852 13.944 15.748 14.016C15.652 14.088 15.564 14.152 15.484 14.208C15.412 14.264 15.328 14.292 15.232 14.292H14.128C14.056 14.292 13.992 14.268 13.936 14.22C13.888 14.164 13.864 14.1 13.864 14.028L14.284 9.924C14.292 9.82 14.328 9.74 14.392 9.684C14.456 9.628 14.532 9.6 14.62 9.6H19.132C19.212 9.6 19.28 9.628 19.336 9.684C19.392 9.74 19.42 9.808 19.42 9.888V10.692C19.42 10.772 19.392 10.84 19.336 10.896C19.28 10.952 19.212 10.98 19.132 10.98H15.664L15.472 12.936C15.616 12.84 15.808 12.748 16.048 12.66C16.288 12.572 16.62 12.528 17.044 12.528C17.428 12.528 17.792 12.592 18.136 12.72C18.488 12.84 18.8 13.02 19.072 13.26C19.344 13.492 19.556 13.776 19.708 14.112C19.868 14.44 19.948 14.816 19.948 15.24C19.948 15.824 19.812 16.332 19.54 16.764C19.268 17.196 18.888 17.532 18.4 17.772C17.912 18.012 17.336 18.132 16.672 18.132Z" fill="white"/>
<path d="M30.3563 8.67298L28.8916 11.6427L25.6146 12.1205C25.0269 12.2057 24.7914 12.9302 25.2176 13.3451L27.5884 15.6554L27.0277 18.919C26.9267 19.5089 27.5481 19.9508 28.0684 19.6749L31 18.1339L33.9316 19.6749C34.452 19.9485 35.0733 19.5089 34.9724 18.919L34.4116 15.6554L36.7825 13.3451C37.2086 12.9302 36.9731 12.2057 36.3855 12.1205L33.1084 11.6427L31.6438 8.67298C31.3813 8.14363 30.621 8.1369 30.3563 8.67298Z" fill="white" fill-opacity="0.6"/>
</svg>
